<?xml version="1.0" ?><svg xmlns="http://www.w3.org/2000/svg" xmlns:xlink="http://www.w3.org/1999/xlink" version="1.1" viewBox="0 0 512 512" style="enable-background:new 0 0 512 512;" xml:space="preserve"><g id="_x33_5_x2C__labor_day_x2C__safety_helmet_x2C__professions_x2C__labor_x2C__labour_day_x2C__construction"><g><g><path style="fill:#D9E2F5;" d="M351.768,132.341l18.3-18.3c-8.78-24.67-3.31-53.27,16.44-73.009     c19.74-19.75,48.34-25.22,73.009-16.45l-37.66,37.66l7.08,35.35l35.35,7.08l37.66-37.66c8.77,24.67,3.3,53.27-16.45,73.009     c-19.74,19.75-48.34,25.22-73.009,16.44l-20.2,20.2C362.859,203.565,322.339,159.246,351.768,132.341z"/><path style="fill:#D9E2F5;" d="M119.719,176.67l-20.21-20.21c-24.67,8.78-53.27,3.31-73.009-16.44     c-19.75-19.74-25.22-48.34-16.45-73.009l37.66,37.66l35.35-7.08l7.08-35.35l-37.66-37.66c24.67-8.77,53.27-3.3,73.009,16.45     c19.75,19.74,25.22,48.339,16.44,73.009l18.31,18.31C191.589,161.013,151.069,205.332,119.719,176.67z"/><path style="fill:#E6C34F;" d="M415.997,313.979H96v-53.444c0-88.365,71.634-159.999,159.999-159.999h0     c88.365,0,159.999,71.634,159.999,159.999V313.979z"/><path style="fill:#E2AE4C;" d="M309.578,198.72c0,49.08-107.159,49.08-107.159,0c7.036-91.722,6.468-88.063,7.16-91.349     c2.58-12.56,13.69-21.84,26.83-21.84h39.18c13.14,0,24.25,9.28,26.83,21.84C303.104,110.628,302.467,106.019,309.578,198.72z"/><path style="fill:#474556;" d="M320.998,235.53v78.449H190.999V235.53c0-35.903,29.104-64.999,64.999-64.999     C291.899,170.53,320.998,199.634,320.998,235.53z"/><circle style="fill:#EBF0FA;" cx="255.998" cy="235.53" r="30"/><path style="fill:#E2AE4C;" d="M450.997,321.059v23.94c0,14.1-11.43,25.53-25.53,25.53H86.53c-14.1,0-25.53-11.43-25.53-25.53     v-23.94c0-14.1,11.43-25.53,25.53-25.53h329.467h9.47C439.567,295.529,450.997,306.959,450.997,321.059z"/><path style="fill:#73B54D;" d="M505.996,439.088l-50.28,6.1l-2.06,46.24c-109.228-109.228-286.056-109.261-395.317,0l-5.88-41.7     L6,439.088C143.371,301.718,366.993,300.085,505.996,439.088z"/><path d="M509.532,435.553c-23.938-23.939-50.744-44.161-79.871-60.32c14.856-2.051,26.336-14.824,26.336-30.235v-23.939     c0-16.834-13.696-30.53-30.53-30.53h-4.47v-30c0-29.292-7.756-57.921-22.431-83.078l15.275-15.275     c26.389,8.13,55.588,0.992,75.189-18.62c20.364-20.353,27.283-51.056,17.627-78.22c-1.224-3.445-5.64-4.466-8.246-1.86     l-35.767,35.766l-29.459-5.899l-5.899-29.46l35.765-35.767c2.594-2.594,1.599-7.017-1.86-8.246     c-27.165-9.659-57.869-2.738-78.218,17.625c-19.613,19.603-26.751,48.801-18.622,75.191l-13.101,13.102     c-13.743-9.731-28.745-17.237-44.686-22.356c-4.112-13.434-16.686-22.902-30.976-22.902h-39.179     c-14.298,0-26.878,9.478-30.979,22.905c-15.958,5.134-30.956,12.642-44.673,22.362l-13.111-13.111     c8.129-26.389,0.991-55.587-18.62-75.19c-20.353-20.363-51.055-27.282-78.22-17.626c-3.456,1.228-4.456,5.65-1.86,8.246     l35.765,35.767l-5.899,29.46l-29.459,5.899L13.585,63.476c-2.599-2.601-7.02-1.591-8.246,1.86     c-9.656,27.164-2.737,57.867,17.625,78.218c19.602,19.613,48.801,26.755,75.191,18.622l15.283,15.283     C98.758,202.584,91,231.21,91,260.529v30h-4.47c-16.834,0-30.53,13.696-30.53,30.53v23.939c0,15.411,11.481,28.184,26.336,30.235     c-29.127,16.16-55.933,36.382-79.871,60.32c-2.774,2.772-1.41,7.532,2.419,8.409l43.105,9.871l5.399,38.293     c0.574,4.074,5.573,5.752,8.486,2.837c107.284-107.282,280.951-107.294,388.247,0c3.062,3.065,8.337,1.028,8.53-3.312     l1.871-42.009l46.076-5.589C510.719,443.552,512.484,438.506,509.532,435.553z M410.997,290.529h-84.999v-55     c0-13.777-3.99-27.046-11.533-38.481l-6.255-82.499c59.188,21.138,102.787,77.938,102.787,145.98V290.529z M255.998,175.53     c33.314,0,60,27.018,60,60v55H195.999v-55C195.999,202.31,222.953,175.53,255.998,175.53z M374.779,112.364     c-8.379-23.542-2.388-50.154,15.265-67.798c15.7-15.706,38.506-22.185,59.935-17.516l-31.656,31.657     c-1.183,1.183-1.696,2.877-1.367,4.517l7.08,35.35c0.396,1.979,1.942,3.525,3.921,3.921l35.348,7.08     c1.645,0.326,3.335-0.185,4.518-1.367l31.657-31.657c4.667,21.428-1.81,44.235-17.518,59.937     c-17.641,17.65-44.255,23.642-67.796,15.264c-1.82-0.646-3.848-0.19-5.212,1.176l-15.826,15.826     c-3.75-5.586-7.842-10.955-12.236-16.044l28.642-28.642c1.953-1.952,1.953-5.118,0-7.07c-1.951-1.953-5.119-1.953-7.07,0     l-28.341,28.341c-4.448-4.556-9.174-8.933-14.811-13.468l14.293-14.293C374.968,116.211,375.425,114.182,374.779,112.364z      M236.409,90.531h39.179c11.547,0,21.445,8.925,22.345,20.718l5.522,72.843c-12.957-11.984-29.694-18.561-47.457-18.561     c-17.77,0-34.657,6.751-47.456,18.552l5.522-72.835C214.966,99.444,224.864,90.531,236.409,90.531z M97.833,151.75     c-23.54,8.38-50.153,2.388-67.798-15.266c-15.707-15.7-22.183-38.508-17.516-59.935l31.657,31.657     c1.182,1.183,2.873,1.694,4.518,1.367l35.348-7.08c1.979-0.396,3.525-1.942,3.921-3.921l7.08-35.35     c0.329-1.64-0.185-3.335-1.367-4.517L62.019,27.048c21.424-4.663,44.235,1.81,59.936,17.519     c17.651,17.642,23.642,44.255,15.264,67.796c-0.646,1.818-0.189,3.848,1.176,5.212l14.308,14.308     c-5.202,4.181-10.16,8.685-14.818,13.462l-28.349-28.349c-1.951-1.953-5.119-1.953-7.07,0c-1.953,1.952-1.953,5.118,0,7.07     l28.648,28.648c-4.403,5.088-8.496,10.457-12.238,16.042l-15.83-15.83C101.68,151.562,99.655,151.104,97.833,151.75z      M101,260.529c0-66.011,41.646-124.11,102.786-145.976l-6.254,82.495c-7.542,11.434-11.533,24.703-11.533,38.481v55H101V260.529z      M66,344.998v-23.939c0-11.32,9.21-20.53,20.53-20.53c73.776,0,252.864,0,338.937,0c11.32,0,20.53,9.21,20.53,20.53v23.939     c0,11.32-9.21,20.53-20.53,20.53h-14.572c-97.34-46.723-212.397-46.751-309.793,0H86.53C75.21,365.529,66,356.319,66,344.998z      M455.114,440.224c-2.426,0.295-4.284,2.3-4.393,4.741l-1.567,35.19C339.93,378.987,170.795,379.289,61.921,481.013l-4.51-31.983     c-0.289-2.052-1.814-3.713-3.835-4.176l-37.516-8.591c108.785-103.4,266.091-121.941,391.529-61.234     c0.001,0,0.001,0.001,0.002,0.001c31.95,15.44,61.312,35.717,87.418,60.354L455.114,440.224z"/><path d="M255.998,270.529c19.299,0,35-15.701,35-35s-15.701-35-35-35s-35,15.701-35,35S236.7,270.529,255.998,270.529z      M255.998,210.53c13.785,0,25,11.215,25,25s-11.215,25-25,25s-25-11.215-25-25S242.213,210.53,255.998,210.53z"/></g></g></g><g id="Layer_1"/></svg>